PathFileType	4	(X/Y/Z)	P:\Projects\LMB_grand_challenge_database\project_only\opensim\experimental_data\SixthCompetition/DM_ngait_og3_new.trc
DataRate	CameraRate	NumFrames	NumMarkers	Units	OrigDataRate	OrigDataStartFrame	OrigNumFrames
120	120	4	68	mm	120	151	302
Frame#	Time	Sternum			Neck			R_Shoulder			L_Shoulder			Xiphoid			Thoracic			R_Asis			L_Asis			R_Psis			L_Psis			Lumbar			R_Elbow			R_ElbowMedial			R_ShoulderAnterior			R_ShoulderPosterior			R_Wrist			R_Radius			R_Ulna			L_Elbow			L_ElbowMedial			L_ShoulderAnterior			L_ShoulderPosterior			L_Wrist			L_Ulna			L_Radius			L_Thigh_Superior			L_Thigh_Inferior			L_Thigh_Lateral			L_Knee_Lateral			L_Knee_Medial			L_Patella			L_Shank_Superior			L_Shank_Inferior			L_Shank_Lateral			L_Ankle_Lateral			L_Ankle_Medial			R_Thigh_Superior			R_Thigh_Inferior			R_Thigh_Lateral			R_Knee_Lateral			R_Knee_Medial			R_Patella			R_Shank_Superior			R_Shank_Inferior			R_Shank_Lateral			R_Ankle_Lateral			RankleMedial			R_Heel			R_Toe			R_Midfoot_Medial			R_Midfoot_Lateral			R_Hindfoot			R_Midfoot_Superior			R_ToeMedial			R_ToeLateral			L_Heel			L_Toe			L_Midfoot_Medial			L_Midfoot_Lateral			L_Hindfoot			L_Midfoot_Superior			L_ToeMedial			L_ToeLateral			Oglobal			Sacral			Xglobal			Yglobal			Zglobal			
		X1	Y1	Z1	X2	Y2	Z2	X3	Y3	Z3	X4	Y4	Z4	X5	Y5	Z5	X6	Y6	Z6	X7	Y7	Z7	X8	Y8	Z8	X9	Y9	Z9	X10	Y10	Z10	X11	Y11	Z11	X12	Y12	Z12	X13	Y13	Z13	X14	Y14	Z14	X15	Y15	Z15	X16	Y16	Z16	X17	Y17	Z17	X18	Y18	Z18	X19	Y19	Z19	X20	Y20	Z20	X21	Y21	Z21	X22	Y22	Z22	X23	Y23	Z23	X24	Y24	Z24	X25	Y25	Z25	X26	Y26	Z26	X27	Y27	Z27	X28	Y28	Z28	X29	Y29	Z29	X30	Y30	Z30	X31	Y31	Z31	X32	Y32	Z32	X33	Y33	Z33	X34	Y34	Z34	X35	Y35	Z35	X36	Y36	Z36	X37	Y37	Z37	X38	Y38	Z38	X39	Y39	Z39	X40	Y40	Z40	X41	Y41	Z41	X42	Y42	Z42	X43	Y43	Z43	X44	Y44	Z44	X45	Y45	Z45	X46	Y46	Z46	X47	Y47	Z47	X48	Y48	Z48	X49	Y49	Z49	X50	Y50	Z50	X51	Y51	Z51	X52	Y52	Z52	X53	Y53	Z53	X54	Y54	Z54	X55	Y55	Z55	X56	Y56	Z56	X57	Y57	Z57	X58	Y58	Z58	X59	Y59	Z59	X60	Y60	Z60	X61	Y61	Z61	X62	Y62	Z62	X63	Y63	Z63	X64	Y64	Z64	X65	Y65	Z65	X66	Y66	Z66	X67	Y67	Z67	X68	Y68	Z68	

152	3.458333	268.436	1461.71	266.557	426.811	1377.89	262.91	360.567	1408.23	433.161	335.642	1427.26	93.155	445.385	1213.72	264.508	179.936	1270.76	248.811	357.088	977.6660000000001	383.646	388.272	995.615	108.295	167.307	1023.75	256.771	174.91	1023.31	178.298	171.535	1072.98	222.909	360.065	1085.96	513.871	-0	0	0	-0	0	0	-0	0	0	468.109	828.523	478.622	465.915	841.0700000000001	435.31	422.095	826.77	491.187	342.071	1097.46	-24.0761	-0	0	0	-0	0	0	-0	0	0	443.133	847.145	-6.17992	404.767	856.044	-35.9701	421.83	859.042	36.7377	329.949	810.146	78.8206	368.239	593.237	141.42	411.932	686.2380000000001	156.37	-0	0	0	-0	0	0	407.364	506.096	209.924	332.661	440.467	142.612	263.724	181.154	155.506	326.572	300.298	224.454	-0	0	0	-0	0	0	301.513	798.266	410.754	374.942	593.875	394.804	406.886	734.008	411.243	-0	0	0	-0	0	0	472.523	500.812	347.172	292.191	458.496	401.72	175.65	287.825	378.252	312.698	348.665	327.275	-0	0	0	-0	0	0	50.2752	229.097	306.954	275.432	36.8527	349.246	215.217	70.89870000000001	282.795	179.576	69.34010000000001	394.508	94.9588	136.628	366.788	209.905	172.882	343.505	250.512	48.8172	300.231	224.725	48.083	387.821	163.655	64.78100000000001	207.898	463.959	51.3415	228.152	378.546	33.5766	271.269	374.162	31.203	156.895	267.416	28.8907	159.026	329.217	119.209	212.493	422.69	35.2119	268.676	429.701	35.2149	172.947	-0	0	0	171.108	1023.53	217.535	-200	0	0	-0	0	200	-0	200	0	
153	3.466667	275.824	1462.62	266.156	433.909	1378.58	263.047	367.392	1409.01	433.225	343.839	1428.02	93.10209999999999	452.527	1214.38	264.702	187.117	1271.64	248.523	363.983	978.378	383.911	394.909	996.044	108.832	174.161	1024.69	257.183	181.557	1024.1	178.72	178.407	1073.83	223.423	364.712	1086.85	514.587	-0	0	0	-0	0	0	-0	0	0	473.143	829.728	480.5	471.908	842.249	437.185	427.08	827.5119999999999	492.209	354.616	1098.48	-23.5851	-0	0	0	-0	0	0	-0	0	0	460.934	850.502	-3.91813	422.377	858.028	-33.8822	438.865	861.816	38.221	336.526	810.671	79.35680000000001	370.638	592.951	141.33	415.587	685.665	157.51	-0	0	0	-0	0	0	409.093	505.875	210.196	333.236	441.573	142.292	263.599	182.586	155.451	329.062	301.317	223.767	-0	0	0	-0	0	0	309.596	799.215	411.151	387.202	596.284	394.229	417.387	736.563	410.766	-0	0	0	-0	0	0	486.031	504.676	344.218	309.326	455.608	403.259	197.923	282.031	380.954	328.896	348.932	325.801	-0	0	0	-0	0	0	71.8182	218.867	310.32	306.481	37.1928	349.918	242.86	67.6277	284.103	208.857	64.8073	396.3	121.729	128.547	369.611	234.06	169.445	344.72	279.887	48.0775	300.556	255.596	45.9257	389.016	163.995	65.2872	207.8	464.089	51.0983	228.229	378.753	33.6228	271.392	374.443	31.0117	157.021	267.508	28.9009	159.046	329.572	119.22	212.391	422.823	35.1045	268.737	429.764	35.1492	172.97	-0	0	0	177.859	1024.39	217.952	-200	0	0	-0	0	200	-0	200	0	
154	3.475	283.351	1463.49	265.506	441.198	1379.16	263.149	373.839	1409.9	433.106	351.774	1428.73	93.0963	459.498	1214.88	264.675	194.154	1272.56	248.07	370.668	979.42	384.277	402.041	996.612	109.043	181.069	1025.54	257.143	188.607	1024.82	178.621	185.366	1074.63	223.25	369.453	1087.45	514.8920000000001	-0	0	0	-0	0	0	-0	0	0	478.282	830.643	482.228	477.91	843.497	439.044	431.866	828.514	493.426	367.08	1099.41	-23.1963	-0	0	0	-0	0	0	-0	0	0	478.695	853.749	-1.92617	439.545	860.85	-32.8974	456.467	865.213	40.2831	343.816	810.898	80.32510000000001	373.383	592.956	141.259	419.387	685.34	158.972	-0	0	0	-0	0	0	411.441	505.595	210.277	334.524	442.381	142.404	263.79	183.196	155.681	331.2	301.564	223.376	-0	0	0	-0	0	0	317.179	800.023	411.439	398.891	598.056	393.884	427.71	738.794	409.793	-0	0	0	-0	0	0	499.056	509.367	341.118	326.008	453.365	404.593	219.599	276.343	383.262	346.373	349.471	324.516	-0	0	0	-0	0	0	94.2668	208.404	313.592	337.27	37.4665	350.267	271.525	64.90049999999999	285.265	239.178	60.7641	397.911	148.639	120.35	372.406	259.057	166.316	345.888	309.189	47.4989	301.561	286.777	44.2235	390.018	164.28	65.90430000000001	207.712	464.302	50.8653	228.212	378.892	33.6499	271.502	374.662	30.9396	157.13	267.671	29.0745	159.024	330.008	119.336	212.378	422.818	34.9851	268.718	429.852	35.0221	172.985	-0	0	0	184.838	1025.18	217.882	-200	0	0	-0	0	200	-0	200	0	
155	3.483333	290.853	1464.26	265.07	448.585	1379.61	263.305	380.621	1410.58	433.082	359.734	1429.23	92.97969999999999	466.495	1215.25	264.767	201.39	1273.27	247.761	377.645	980.429	384.334	408.818	996.63	109.381	187.986	1026.41	257.236	195.431	1025.55	178.813	192.384	1075.43	223.298	374.286	1088.61	515.676	-0	0	0	-0	0	0	-0	0	0	483.495	831.691	483.945	483.635	843.966	440.792	437.087	829.256	494.129	379.444	1100.25	-22.5784	-0	0	0	-0	0	0	-0	0	0	496.042	857.124	0.04852	457.149	862.468	-29.4332	474.682	868.901	42.8264	350.107	810.901	81.4776	376.602	593.097	141.657	424.202	685.124	160.809	-0	0	0	-0	0	0	413.119	505.727	210.834	336.701	442.202	143.24	264.477	182.938	156.289	332.619	301.367	223.743	-0	0	0	-0	0	0	325.303	801.316	412.843	410.714	600.383	393.027	437.564	741.073	408.967	-0	0	0	-0	0	0	511.068	513.697	339.243	342.41	452.409	406.315	242.329	270.573	385.471	364.626	349.926	324.084	-0	0	0	-0	0	0	116.846	197.485	317.943	367.684	37.4766	350.205	299.937	62.2908	286.058	269.852	56.4738	399.254	176.365	112.26	375.313	283.349	163.042	347.058	338.783	46.602	301.928	317.555	42.202	390.833	164.263	66.22410000000001	208.07	464.339	50.7014	228.17	378.904	33.3383	271.439	374.487	30.9196	157.067	267.756	29.1844	158.997	330.29	119.333	212.609	422.996	34.7391	268.746	429.849	34.9321	172.996	-0	0	0	191.708	1025.98	218.025	-200	0	0	-0	0	200	-0	200	0	
